<?xml version="1.0" standalone="no"?>
<!DOCTYPE svg PUBLIC "-//W3C//DTD SVG 20010904//EN"
 "http://www.w3.org/TR/2001/REC-SVG-20010904/DTD/svg10.dtd">
<svg version="1.0" xmlns="http://www.w3.org/2000/svg"
 width="500.000000pt" height="500.000000pt" viewBox="0 0 500.000000 500.000000"
 preserveAspectRatio="xMidYMid meet">

<g transform="translate(0.000000,500.000000) scale(0.100000,-0.100000)"
fill="#000000" stroke="none">
<path d="M2385 4231 c-409 -73 -786 -285 -1088 -611 -244 -263 -416 -609 -478
-962 -31 -175 -31 -462 0 -633 103 -562 488 -1003 1028 -1180 352 -115 877
-120 1263 -13 89 24 251 92 339 142 310 176 567 488 675 821 70 216 99 482 78
721 -36 412 -226 818 -531 1137 -207 215 -367 324 -786 532 -132 66 -300 81
-500 46z m315 -71 c92 -15 218 -78 284 -145 99 -99 135 -215 101 -331 -53
-184 -239 -319 -600 -433 -237 -75 -335 -126 -453 -236 -79 -73 -140 -157
-191 -266 -65 -135 -76 -190 -75 -374 0 -146 2 -167 27 -240 78 -235 258 -405
493 -465 154 -40 387 -25 533 34 195 79 347 262 402 486 30 119 23 315 -15
445 -71 236 -245 437 -473 542 -41 19 -72 37 -69 40 2 3 38 20 79 38 93 40
164 83 243 146 74 60 123 124 165 212 27 58 31 77 31 150 -1 60 -6 98 -21 135
-16 41 -18 52 -7 52 8 0 61 -31 118 -68 227 -151 395 -316 561 -553 333 -479
391 -1182 137 -1683 -224 -444 -605 -707 -1145 -793 -152 -24 -498 -24 -650 0
-366 58 -645 191 -873 417 -453 449 -559 1180 -264 1820 185 402 557 764 971
944 115 50 289 101 391 115 47 6 96 13 110 15 52 7 127 6 190 -4z m-70 -1031
c108 -41 192 -94 277 -173 180 -167 262 -368 250 -610 -15 -318 -192 -535
-491 -601 -116 -26 -304 -17 -404 18 -193 67 -328 204 -388 391 -32 100 -43
260 -24 362 54 293 267 532 565 631 81 26 106 24 215 -18z"/>
<path d="M2201 3920 c-76 -28 -103 -47 -99 -72 6 -42 30 -43 129 -7 90 33 94
36 94 64 0 27 -3 30 -35 32 -19 2 -59 -6 -89 -17z"/>
<path d="M1871 3762 c-112 -67 -222 -155 -328 -260 -84 -84 -103 -108 -103
-132 0 -23 5 -31 25 -36 21 -5 37 6 112 83 106 108 182 171 299 249 113 74
121 85 88 118 -21 21 -22 21 -93 -22z"/>
<path d="M3867 2246 c-7 -8 -19 -54 -26 -102 -32 -230 -145 -467 -305 -641
-62 -68 -71 -87 -50 -108 25 -25 43 -18 101 42 183 191 321 483 340 720 4 51
2 77 -7 88 -16 19 -34 19 -53 1z"/>
</g>
</svg>
